HIERARCHY
ROOT hip
{
  OFFSET 0 0 0
  CHANNELS 6 Xposition Yposition Zposition Zrotation Yrotation Xrotation
  JOINT abdomen
  {
    OFFSET 0 20.6881 -0.73152
    CHANNELS 3 Zrotation Xrotation Yrotation
    JOINT chest
    {
      OFFSET 0 11.7043 -0.48768
      CHANNELS 3 Zrotation Xrotation Yrotation
      JOINT neck
      {
        OFFSET 0 22.1894 -2.19456
        CHANNELS 3 Zrotation Xrotation Yrotation
        JOINT head
        {
          OFFSET -0.24384 7.07133 1.2192
          CHANNELS 3 Zrotation Xrotation Yrotation
          JOINT leftEye
          {
            OFFSET 4.14528 8.04674 8.04672
            CHANNELS 3 Zrotation Xrotation Yrotation
            End Site
            {
              OFFSET 1 0 0
            }
          }
          JOINT rightEye
          {
            OFFSET -3.6576 8.04674 8.04672
            CHANNELS 3 Zrotation Xrotation Yrotation
            End Site
            {
              OFFSET 1 0 0
            }
          }
        }
      }
      JOINT rCollar
      {
        OFFSET -2.68224 19.2634 -4.8768
        CHANNELS 3 Zrotation Xrotation Yrotation
        JOINT rShldr
        {
          OFFSET -8.77824 -1.95073 1.46304
          CHANNELS 3 Zrotation Xrotation Yrotation
          JOINT rForeArm
          {
            OFFSET -28.1742 -1.7115 0.48768
            CHANNELS 3 Zrotation Xrotation Yrotation
            JOINT rHand
            {
              OFFSET -22.5879 0.773209 7.07136
              CHANNELS 3 Zrotation Xrotation Yrotation
              JOINT rThumb1
              {
                OFFSET -1.2192 -0.487915 3.41376
                CHANNELS 3 Zrotation Xrotation Yrotation
                JOINT rThumb2
                {
                  OFFSET -3.37035 -0.52449 3.41376
                  CHANNELS 3 Zrotation Xrotation Yrotation
                  End Site
                  {
                    OFFSET -1.78271 -1.18214 1.43049
                  }
                }
              }
              JOINT rIndex1
              {
                OFFSET -7.75947 0.938293 5.60832
                CHANNELS 3 Zrotation Xrotation Yrotation
                JOINT rIndex2
                {
                  OFFSET -2.54057 -0.884171 1.56538
                  CHANNELS 3 Zrotation Xrotation Yrotation
                  End Site
                  {
                    OFFSET -1.62519 -0.234802 1.16502
                  }
                }
              }
              JOINT rMid1
              {
                OFFSET -8.24714 1.18213 3.41376
                CHANNELS 3 Zrotation Xrotation Yrotation
                JOINT rMid2
                {
                  OFFSET -3.10165 -0.590103 1.0647
                  CHANNELS 3 Zrotation Xrotation Yrotation
                  End Site
                  {
                    OFFSET -2.48547 -0.328903 0.83742
                  }
                }
              }
              JOINT rRing1
              {
                OFFSET -8.82822 0.546677 1.51678
                CHANNELS 3 Zrotation Xrotation Yrotation
                JOINT rRing2
                {
                  OFFSET -2.60934 -0.819778 -0.0198488
                  CHANNELS 3 Zrotation Xrotation Yrotation
                  End Site
                  {
                    OFFSET -2.33842 -0.294052 0.168128
                  }
                }
              }
              JOINT rPinky1
              {
                OFFSET -8.27202 -0.0477905 -0.4584
                CHANNELS 3 Zrotation Xrotation Yrotation
                JOINT rPinky2
                {
                  OFFSET -1.82734 -0.647385 -0.700984
                  CHANNELS 3 Zrotation Xrotation Yrotation
                  End Site
                  {
                    OFFSET -1.69225 -0.51767 -0.607171
                  }
                }
              }
            }
          }
        }
      }
      JOINT lCollar
      {
        OFFSET 2.68224 19.2634 -4.8768
        CHANNELS 3 Zrotation Xrotation Yrotation
        JOINT lShldr
        {
          OFFSET 8.77824 -1.95073 1.46304
          CHANNELS 3 Zrotation Xrotation Yrotation
          JOINT lForeArm
          {
            OFFSET 28.1742 -1.7115 0.48768
            CHANNELS 3 Zrotation Xrotation Yrotation
            JOINT lHand
            {
              OFFSET 22.5879 0.773209 7.07136
              CHANNELS 3 Zrotation Xrotation Yrotation
              JOINT lThumb1
              {
                OFFSET 1.2192 -0.487915 3.41376
                CHANNELS 3 Zrotation Xrotation Yrotation
                JOINT lThumb2
                {
                  OFFSET 3.37035 -0.52449 3.41376
                  CHANNELS 3 Zrotation Xrotation Yrotation
                  End Site
                  {
                    OFFSET 1.78271 -1.18214 1.43049
                  }
                }
              }
              JOINT lIndex1
              {
                OFFSET 7.75947 0.938293 5.60832
                CHANNELS 3 Zrotation Xrotation Yrotation
                JOINT lIndex2
                {
                  OFFSET 2.54057 -0.884171 1.56538
                  CHANNELS 3 Zrotation Xrotation Yrotation
                  End Site
                  {
                    OFFSET 1.62519 -0.234802 1.16502
                  }
                }
              }
              JOINT lMid1
              {
                OFFSET 8.24714 1.18213 3.41376
                CHANNELS 3 Zrotation Xrotation Yrotation
                JOINT lMid2
                {
                  OFFSET 3.10165 -0.590103 1.0647
                  CHANNELS 3 Zrotation Xrotation Yrotation
                  End Site
                  {
                    OFFSET 2.48547 -0.328903 0.83742
                  }
                }
              }
              JOINT lRing1
              {
                OFFSET 8.82822 0.546677 1.51678
                CHANNELS 3 Zrotation Xrotation Yrotation
                JOINT lRing2
                {
                  OFFSET 2.60934 -0.819778 -0.0198488
                  CHANNELS 3 Zrotation Xrotation Yrotation
                  End Site
                  {
                    OFFSET 2.33842 -0.294052 0.168128
                  }
                }
              }
              JOINT lPinky1
              {
                OFFSET 8.27202 -0.0477905 -0.4584
                CHANNELS 3 Zrotation Xrotation Yrotation
                JOINT lPinky2
                {
                  OFFSET 1.82734 -0.647385 -0.700984
                  CHANNELS 3 Zrotation Xrotation Yrotation
                  End Site
                  {
                    OFFSET 1.69225 -0.51767 -0.607171
                  }
                }
              }
            }
          }
        }
      }
    }
  }
  JOINT rButtock
  {
    OFFSET -8.77824 4.35084 1.2192
    CHANNELS 3 Zrotation Xrotation Yrotation
    JOINT rThigh
    {
      OFFSET 0 -1.70687 -2.19456
      CHANNELS 3 Zrotation Xrotation Yrotation
      JOINT rShin
      {
        OFFSET 0 -36.8199 0.73152
        CHANNELS 3 Zrotation Xrotation Yrotation
        JOINT rFoot
        {
          OFFSET 0.73152 -45.1104 -5.12064
          CHANNELS 3 Zrotation Xrotation Yrotation
          End Site
          {
            OFFSET -1.1221 -3.69964 12.103
          }
        }
      }
    }
  }
  JOINT lButtock
  {
    OFFSET 8.77824 4.35084 1.2192
    CHANNELS 3 Zrotation Xrotation Yrotation
    JOINT lThigh
    {
      OFFSET 0 -1.70687 -2.19456
      CHANNELS 3 Zrotation Xrotation Yrotation
      JOINT lShin
      {
        OFFSET 0 -36.8199 0.73152
        CHANNELS 3 Zrotation Xrotation Yrotation
        JOINT lFoot
        {
          OFFSET -0.73152 -45.1104 -5.12064
          CHANNELS 3 Zrotation Xrotation Yrotation
          End Site
          {
            OFFSET 1.1221 -3.69964 12.103
          }
        }
      }
    }
  }
}
MOTION
Frames:	6
Frame Time:	0.03333
0.0 0.0 0.0 0.0 0.0 0.0 0.0 0.0 0.0 0.0 0.0 0.0 0.0 0.0 0.0 0.0 0.0 0.0 0.0 0.0 0.0 0.0 0.0 0.0 0.0 0.0 0.0 0.0 0.0 0.0 0.0 0.0 0.0 0.0 0.0 0.0 0.0 0.0 0.0 0.0 0.0 0.0 0.0 0.0 0.0 0.0 0.0 0.0 0.0 0.0 0.0 0.0 0.0 0.0 0.0 0.0 0.0 0.0 0.0 0.0 0.0 0.0 0.0 0.0 0.0 0.0 0.0 0.0 0.0 0.0 0.0 0.0 0.0 0.0 0.0 0.0 0.0 0.0 0.0 0.0 0.0 0.0 0.0 0.0 0.0 0.0 0.0 0.0 0.0 0.0 0.0 0.0 0.0 0.0 0.0 0.0 0.0 0.0 0.0 0.0 0.0 0.0 0.0 0.0 0.0 0.0 0.0 0.0 0.0 0.0 0.0 0.0 0.0 0.0 0.0 0.0 0.0 0.0 0.0 0.0 0.0 0.0 0.0 0.0 0.0 0.0 0.0 0.0 0.0 0.0 0.0 0.0
0.019200000000000002 62.242399999999996 -0.0026 -179.877624 8.367393 179.179378 0.317549 -1.027516 -169.086224 -5.671699 -10.51035 148.93521 9.678898 -12.175334 83.617519 -28.453227 47.958966 -140.946109 -167.811555 4.382125 39.430179 -72.30245 -7.614131 10.40864 -57.032156 50.395127 133.174914 -179.657294 -51.978133 162.137996 -178.446767 8.734021 -14.688056 -178.799182 38.969107 84.966494 29.06478 -17.759052 35.006964 12.408761 46.935716 148.624734 177.475447 18.363424 -166.550047 2.792005 -6.248342 104.970326 -21.523211 0.261908 -110.331659 132.345343 -70.592111 94.879462 -88.447966 20.382875 -99.291295 -1.827036 56.560521 12.033553 -144.331246 30.979946 -74.162154 -144.835965 16.12117 -145.921198 88.833213 -34.452809 -163.181988 72.943486 77.273113 -78.809511 126.871749 84.321857 66.817526 -49.040798 -58.292208 -11.628108 -18.725646 -42.138293 -3.64346 18.23068 -3.095378 15.058789 8.711639 -66.911431 5.310813 159.239297 -65.824809 -91.065816 -164.269364 9.197222 -132.047996 131.76056 21.26978 -93.610621 79.68574 67.842116 105.923157 -13.593777 42.0381 -4.833206 75.853018 63.328103 94.266121 154.342414 59.588168 156.03033 -45.724844 -26.429485 -63.750784 3.246295 51.991639 3.594156 -7.458085 -1.238987 -74.971871 -72.486057 25.089395 96.351118 -51.158042 -15.692954 -76.609469 0.654592 53.510857 177.146585 7.605041 -0.251499 81.316727 71.838544 20.300472 -98.186493
-1.2864 61.311800000000005 -0.8574999999999999 -9.602457 -9.470181 0.230213 10.18824 14.78636 -12.573255 -4.156572 -7.697458 23.595028 -7.180062 13.286579 -30.855835 25.362401 -16.008861 49.426042 63.322672 0.434373 0.704367 -19.670025 2.254525 -12.95117 6.684763 -10.926079 -3.555467 63.717021 24.877359 -9.959991 175.854756 -8.709412 34.213242 -166.949357 16.963053 130.802167 0.12475 3.954668 -9.456562 -4.737364 12.065239 26.963756 130.534662 -67.462816 80.863403 -1.03992 17.894817 24.016576 21.224963 -44.169113 3.454323 94.222793 -57.729607 70.041334 -136.95313 4.647218 177.37004 35.248163 -3.506052 -7.773232 -15.301163 -4.498971 -4.624693 -6.75786 -1.21712 32.901986 1.666364 3.761779 3.770863 15.711505 35.148736 -80.005788 138.318872 -82.645357 63.704785 3.810656 15.487742 1.314372 156.053514 11.189567 -93.510684 -30.954086 -57.950385 -44.272846 5.122689 14.004649 -6.492009 -26.400112 -48.879075 10.762573 -25.300144 -22.804659 1.537382 -166.717838 -23.673368 -143.466758 4.251735 -14.851722 2.83054 134.567847 4.013467 -167.579719 154.688021 24.190944 147.360467 28.059867 -40.581227 44.790857 1.481811 9.053515 3.226007 -18.629947 -24.526465 -124.112689 -56.376554 -8.400888 102.062858 -111.379851 3.980409 15.628405 -103.750716 52.285807 -46.597689 171.852843 3.389629 -35.689453 -68.22192 40.8237 154.236057 3.174104 -9.157722 -81.020106
-0.5569000000000001 62.6116 -1.2768 -7.218054 -9.916974 -2.787831 3.905733 13.519474 129.033575 -4.884859 5.381653 -116.298681 -5.146205 29.535258 -158.755781 -0.875676 37.778679 -177.268308 9.131022 -5.609433 -63.059597 -7.344603 -1.148024 17.7445 -2.748457 33.253661 7.59541 44.256872 24.870973 33.224713 -0.142215 -19.117529 107.638455 3.286381 -20.092459 -9.673374 -177.956103 -4.79003 89.873534 -171.434087 21.463483 77.965799 7.299416 -70.369181 -5.481441 -110.358316 38.599654 104.540794 -163.733515 31.263952 135.991465 -170.569775 41.749711 139.189464 -100.581289 34.995242 111.178197 26.556942 -32.352025 -22.483932 -21.924602 28.121919 18.411987 15.322863 -55.251773 -13.828268 -2.234928 -22.87528 4.037165 106.196166 -8.736048 -152.051515 -8.662594 -8.170897 109.791023 -158.280381 -15.585276 -144.188565 98.987919 43.156395 -50.988036 -38.342194 -31.075742 -15.170526 -39.089072 -81.592337 8.437713 -30.11066 14.790737 7.438063 15.558621 -67.75078 55.554882 158.321785 -14.839549 -108.262586 -10.297325 32.806889 8.114434 -156.391543 -52.573327 -160.007586 133.905351 42.819551 79.388836 65.97108 59.960393 121.706382 73.367189 21.120783 37.593466 -98.297856 20.309415 35.396333 72.843057 14.087485 161.234741 42.65226 -34.500037 121.896023 79.403983 78.174494 93.973235 -139.72376 16.150414 60.994378 80.446776 4.565109 77.596961 -63.845523 -7.571086 174.691492
-0.2779 62.44539999999999 -1.411 -5.509075 -17.496964 -2.225592 2.006832 11.983714 166.806281 2.958843 9.442867 -146.654316 16.06667 19.132129 79.971787 -26.09319 -0.316713 -59.425856 -2.49023 0.629955 -28.388637 -12.758645 -0.186811 1.670787 5.041572 4.676889 -7.254851 -105.932347 7.706288 172.026019 -97.204174 39.678632 -61.739214 -173.183417 -35.446415 144.434146 -52.563195 35.460954 24.588573 -131.813082 -43.319576 91.175371 1.954576 9.127415 -6.956317 -169.587446 8.132702 96.979364 -165.749109 -7.7799 128.465244 -163.505271 19.279692 122.869512 -7.310713 26.176802 23.556887 -165.675928 14.514515 -158.101208 -74.27473 -40.26196 -51.961273 -72.234466 12.979082 -143.089019 -3.288597 -65.398963 5.93304 88.580883 -44.249348 156.795057 -24.144494 -27.849379 104.172174 -178.924567 -2.294339 -149.371045 13.096726 14.277237 -2.588842 126.967085 -73.915619 -150.943803 146.010366 -37.124396 -140.830164 12.021914 76.368058 9.387286 141.498719 51.567372 -131.011505 166.694295 -6.837466 -149.870797 135.347016 9.640351 -165.156727 119.810044 16.90389 -148.265445 63.405042 -6.323645 64.946271 35.679619 67.04264 -123.521304 81.914366 24.867035 36.717792 -108.821484 17.782199 -82.74011 -64.927466 42.266142 38.559488 -81.677227 -36.664053 -1.379895 10.221472 3.816942 6.477113 48.697717 -57.537595 11.054961 -51.927054 51.812871 114.137222 -116.147699 14.861303 37.726294
-0.5658 61.3298 -1.0727 -5.848922 -20.610954 -0.232359 1.277451 11.393311 175.332991 3.500342 10.310137 -154.454266 -8.088764 20.013538 -79.848842 29.343339 19.052898 102.241475 0.627066 -0.042825 -7.813654 2.953736 0.363147 14.015082 2.788382 25.386201 -3.13577 -140.608042 -57.009563 143.631134 -172.090266 28.188948 -70.823304 -7.881195 -51.361529 -10.909298 -172.057239 -7.991122 97.221582 -0.763311 -42.761529 28.549785 -31.829019 53.051305 18.780112 -155.574891 37.046797 95.342658 -166.464025 -68.163151 155.272686 -166.177891 -45.616474 136.084731 -153.017986 -7.742448 178.67143 -160.666333 1.802685 164.783371 -169.575703 -14.167251 -109.53278 -154.994496 -14.257615 -42.044594 167.349853 -26.782818 -167.506611 -123.027868 27.721946 121.183467 -146.302798 16.212019 -67.446797 -178.939104 8.612479 -142.223395 167.966012 -1.732007 -94.453699 172.655123 -10.376712 -86.783436 136.005287 18.412803 -106.023665 148.737814 27.740899 -69.767462 162.516842 25.366369 -133.319596 -17.373098 -32.547336 -6.494221 115.133095 28.093076 -136.458412 -68.692455 4.035296 -5.314012 145.418653 35.659451 145.808954 143.944428 4.41045 124.380578 -68.703545 49.867513 -37.215291 88.073165 -10.560926 -3.112916 -84.874767 50.849862 -30.120171 -173.018316 -9.335505 -90.782028 -167.525624 74.764946 -8.373528 -147.877975 5.480237 132.83447 66.927772 -35.657767 167.558479 4.761203 -10.84566 92.753632
